<svg width="153" height="40" viewBox="0 0 153 40" fill="none" xmlns="http://www.w3.org/2000/svg">
<path d="M64.462 26.1415C62.734 26.1415 61.384 25.7215 60.412 24.8815C59.44 24.0295 58.924 22.8235 58.864 21.2635C58.852 20.9155 58.846 20.3635 58.846 19.6075C58.846 18.8515 58.852 18.2995 58.864 17.9515C58.924 16.4275 59.446 15.2515 60.43 14.4235C61.426 13.5955 62.77 13.1815 64.462 13.1815C65.602 13.1815 66.592 13.3675 67.432 13.7395C68.284 14.1115 68.932 14.5855 69.376 15.1615C69.832 15.7375 70.072 16.3315 70.096 16.9435C70.096 17.0515 70.054 17.1415 69.97 17.2135C69.898 17.2855 69.808 17.3215 69.7 17.3215H67.072C66.952 17.3215 66.856 17.3035 66.784 17.2675C66.712 17.2315 66.652 17.1655 66.604 17.0695C66.448 16.7215 66.202 16.4215 65.866 16.1695C65.53 15.9055 65.062 15.7735 64.462 15.7735C63.034 15.7735 62.284 16.5295 62.212 18.0415C62.2 18.3775 62.194 18.8995 62.194 19.6075C62.194 20.3035 62.2 20.8255 62.212 21.1735C62.284 22.7575 63.052 23.5495 64.516 23.5495C65.224 23.5495 65.788 23.3695 66.208 23.0095C66.64 22.6375 66.856 22.0735 66.856 21.3175V20.9755H65.164C65.032 20.9755 64.924 20.9335 64.84 20.8495C64.756 20.7535 64.714 20.6395 64.714 20.5075V19.1755C64.714 19.0435 64.756 18.9355 64.84 18.8515C64.924 18.7555 65.032 18.7075 65.164 18.7075H69.7C69.832 18.7075 69.94 18.7555 70.024 18.8515C70.108 18.9355 70.15 19.0435 70.15 19.1755V21.2275C70.15 22.2475 69.916 23.1295 69.448 23.8735C68.98 24.6055 68.314 25.1695 67.45 25.5655C66.598 25.9495 65.602 26.1415 64.462 26.1415ZM76.4451 26.1415C74.9571 26.1415 73.8111 25.7875 73.0071 25.0795C72.2031 24.3715 71.7651 23.3755 71.6931 22.0915C71.6811 21.9355 71.6751 21.6655 71.6751 21.2815C71.6751 20.8975 71.6811 20.6275 71.6931 20.4715C71.7651 19.1995 72.2151 18.2095 73.0431 17.5015C73.8711 16.7815 75.0051 16.4215 76.4451 16.4215C77.8971 16.4215 79.0371 16.7815 79.8651 17.5015C80.6931 18.2095 81.1431 19.1995 81.2151 20.4715C81.2271 20.6275 81.2331 20.8975 81.2331 21.2815C81.2331 21.6655 81.2271 21.9355 81.2151 22.0915C81.1431 23.3755 80.7051 24.3715 79.9011 25.0795C79.0971 25.7875 77.9451 26.1415 76.4451 26.1415ZM76.4451 23.9455C76.9731 23.9455 77.3631 23.7895 77.6151 23.4775C77.8671 23.1535 78.0111 22.6615 78.0471 22.0015C78.0591 21.8815 78.0651 21.6415 78.0651 21.2815C78.0651 20.9215 78.0591 20.6815 78.0471 20.5615C78.0111 19.9135 77.8611 19.4275 77.5971 19.1035C77.3451 18.7795 76.9611 18.6175 76.4451 18.6175C75.4491 18.6175 74.9211 19.2655 74.8611 20.5615L74.8431 21.2815L74.8611 22.0015C74.8851 22.6615 75.0231 23.1535 75.2751 23.4775C75.5391 23.7895 75.9291 23.9455 76.4451 23.9455Z" fill="black"/>
<path d="M88.385 26.1415C86.669 26.1415 85.325 25.7275 84.353 24.8995C83.393 24.0595 82.883 22.8475 82.823 21.2635C82.811 20.9395 82.805 20.4115 82.805 19.6795C82.805 18.9355 82.811 18.3955 82.823 18.0595C82.883 16.4995 83.405 15.2995 84.389 14.4595C85.373 13.6075 86.705 13.1815 88.385 13.1815C89.441 13.1815 90.389 13.3615 91.229 13.7215C92.069 14.0695 92.729 14.5735 93.209 15.2335C93.701 15.8815 93.953 16.6435 93.965 17.5195V17.5555C93.965 17.6515 93.923 17.7355 93.839 17.8075C93.767 17.8675 93.683 17.8975 93.587 17.8975H91.157C91.001 17.8975 90.881 17.8675 90.797 17.8075C90.713 17.7355 90.641 17.6095 90.581 17.4295C90.413 16.8175 90.149 16.3915 89.789 16.1515C89.429 15.8995 88.955 15.7735 88.367 15.7735C86.951 15.7735 86.219 16.5655 86.171 18.1495C86.159 18.4735 86.153 18.9715 86.153 19.6435C86.153 20.3155 86.159 20.8255 86.171 21.1735C86.219 22.7575 86.951 23.5495 88.367 23.5495C88.955 23.5495 89.435 23.4235 89.807 23.1715C90.179 22.9075 90.437 22.4815 90.581 21.8935C90.629 21.7135 90.695 21.5935 90.779 21.5335C90.863 21.4615 90.989 21.4255 91.157 21.4255H93.587C93.695 21.4255 93.785 21.4615 93.857 21.5335C93.941 21.6055 93.977 21.6955 93.965 21.8035C93.953 22.6795 93.701 23.4475 93.209 24.1075C92.729 24.7555 92.069 25.2595 91.229 25.6195C90.389 25.9675 89.441 26.1415 88.385 26.1415ZM100.088 26.1415C98.5997 26.1415 97.4537 25.7875 96.6497 25.0795C95.8457 24.3715 95.4077 23.3755 95.3357 22.0915C95.3237 21.9355 95.3177 21.6655 95.3177 21.2815C95.3177 20.8975 95.3237 20.6275 95.3357 20.4715C95.4077 19.1995 95.8577 18.2095 96.6857 17.5015C97.5137 16.7815 98.6477 16.4215 100.088 16.4215C101.54 16.4215 102.68 16.7815 103.508 17.5015C104.336 18.2095 104.786 19.1995 104.858 20.4715C104.87 20.6275 104.876 20.8975 104.876 21.2815C104.876 21.6655 104.87 21.9355 104.858 22.0915C104.786 23.3755 104.348 24.3715 103.544 25.0795C102.74 25.7875 101.588 26.1415 100.088 26.1415ZM100.088 23.9455C100.616 23.9455 101.006 23.7895 101.258 23.4775C101.51 23.1535 101.654 22.6615 101.69 22.0015C101.702 21.8815 101.708 21.6415 101.708 21.2815C101.708 20.9215 101.702 20.6815 101.69 20.5615C101.654 19.9135 101.504 19.4275 101.24 19.1035C100.988 18.7795 100.604 18.6175 100.088 18.6175C99.0917 18.6175 98.5637 19.2655 98.5037 20.5615L98.4857 21.2815L98.5037 22.0015C98.5277 22.6615 98.6657 23.1535 98.9177 23.4775C99.1817 23.7895 99.5717 23.9455 100.088 23.9455ZM107.114 25.9615C106.982 25.9615 106.874 25.9195 106.79 25.8355C106.706 25.7515 106.664 25.6435 106.664 25.5115V17.0515C106.664 16.9195 106.706 16.8115 106.79 16.7275C106.874 16.6435 106.982 16.6015 107.114 16.6015H109.184C109.316 16.6015 109.424 16.6495 109.508 16.7455C109.604 16.8295 109.652 16.9315 109.652 17.0515V17.7715C110.312 16.9915 111.2 16.6015 112.316 16.6015H113.108C113.24 16.6015 113.348 16.6435 113.432 16.7275C113.516 16.8115 113.558 16.9195 113.558 17.0515V18.9055C113.558 19.0255 113.516 19.1335 113.432 19.2295C113.348 19.3135 113.24 19.3555 113.108 19.3555H111.362C110.87 19.3555 110.486 19.4935 110.21 19.7695C109.946 20.0335 109.814 20.4115 109.814 20.9035V25.5115C109.814 25.6435 109.766 25.7515 109.67 25.8355C109.586 25.9195 109.478 25.9615 109.346 25.9615H107.114ZM119.178 26.1415C117.69 26.1415 116.544 25.7875 115.74 25.0795C114.936 24.3715 114.498 23.3755 114.426 22.0915C114.414 21.9355 114.408 21.6655 114.408 21.2815C114.408 20.8975 114.414 20.6275 114.426 20.4715C114.498 19.1995 114.948 18.2095 115.776 17.5015C116.604 16.7815 117.738 16.4215 119.178 16.4215C120.63 16.4215 121.77 16.7815 122.598 17.5015C123.426 18.2095 123.876 19.1995 123.948 20.4715C123.96 20.6275 123.966 20.8975 123.966 21.2815C123.966 21.6655 123.96 21.9355 123.948 22.0915C123.876 23.3755 123.438 24.3715 122.634 25.0795C121.83 25.7875 120.678 26.1415 119.178 26.1415ZM119.178 23.9455C119.706 23.9455 120.096 23.7895 120.348 23.4775C120.6 23.1535 120.744 22.6615 120.78 22.0015C120.792 21.8815 120.798 21.6415 120.798 21.2815C120.798 20.9215 120.792 20.6815 120.78 20.5615C120.744 19.9135 120.594 19.4275 120.33 19.1035C120.078 18.7795 119.694 18.6175 119.178 18.6175C118.182 18.6175 117.654 19.2655 117.594 20.5615L117.576 21.2815L117.594 22.0015C117.618 22.6615 117.756 23.1535 118.008 23.4775C118.272 23.7895 118.662 23.9455 119.178 23.9455ZM126.203 25.9615C126.071 25.9615 125.963 25.9195 125.879 25.8355C125.795 25.7515 125.753 25.6435 125.753 25.5115V17.0515C125.753 16.9195 125.795 16.8115 125.879 16.7275C125.963 16.6435 126.071 16.6015 126.203 16.6015H128.273C128.405 16.6015 128.513 16.6435 128.597 16.7275C128.693 16.8115 128.741 16.9195 128.741 17.0515V17.7355C129.065 17.3395 129.479 17.0215 129.983 16.7815C130.499 16.5415 131.081 16.4215 131.729 16.4215C132.785 16.4215 133.643 16.7815 134.303 17.5015C134.963 18.2095 135.293 19.2055 135.293 20.4895V25.5115C135.293 25.6315 135.251 25.7395 135.167 25.8355C135.083 25.9195 134.975 25.9615 134.843 25.9615H132.575C132.455 25.9615 132.347 25.9195 132.251 25.8355C132.167 25.7395 132.125 25.6315 132.125 25.5115V20.5975C132.125 20.0335 131.987 19.6015 131.711 19.3015C131.435 18.9895 131.039 18.8335 130.523 18.8335C130.019 18.8335 129.623 18.9895 129.335 19.3015C129.047 19.6015 128.903 20.0335 128.903 20.5975V25.5115C128.903 25.6315 128.861 25.7395 128.777 25.8355C128.693 25.9195 128.585 25.9615 128.453 25.9615H126.203ZM140.128 26.1415C139.492 26.1415 138.91 26.0215 138.382 25.7815C137.866 25.5295 137.458 25.1935 137.158 24.7735C136.87 24.3415 136.726 23.8675 136.726 23.3515C136.726 22.5235 137.062 21.8575 137.734 21.3535C138.418 20.8495 139.354 20.5015 140.542 20.3095L142.792 19.9675V19.7155C142.792 19.2595 142.696 18.9235 142.504 18.7075C142.312 18.4915 141.988 18.3835 141.532 18.3835C141.256 18.3835 141.028 18.4315 140.848 18.5275C140.668 18.6235 140.482 18.7555 140.29 18.9235C140.122 19.0675 139.996 19.1635 139.912 19.2115C139.876 19.3075 139.81 19.3555 139.714 19.3555H137.752C137.632 19.3555 137.53 19.3195 137.446 19.2475C137.374 19.1635 137.344 19.0675 137.356 18.9595C137.368 18.6355 137.524 18.2755 137.824 17.8795C138.136 17.4835 138.604 17.1415 139.228 16.8535C139.864 16.5655 140.644 16.4215 141.568 16.4215C143.044 16.4215 144.136 16.7515 144.844 17.4115C145.552 18.0595 145.906 18.9355 145.906 20.0395V25.5115C145.906 25.6315 145.864 25.7395 145.78 25.8355C145.696 25.9195 145.588 25.9615 145.456 25.9615H143.368C143.248 25.9615 143.14 25.9195 143.044 25.8355C142.96 25.7395 142.918 25.6315 142.918 25.5115V24.8815C142.654 25.2535 142.282 25.5595 141.802 25.7995C141.334 26.0275 140.776 26.1415 140.128 26.1415ZM140.974 24.0895C141.526 24.0895 141.97 23.9095 142.306 23.5495C142.654 23.1895 142.828 22.6615 142.828 21.9655V21.7135L141.298 21.9835C140.218 22.1755 139.678 22.5535 139.678 23.1175C139.678 23.4175 139.804 23.6575 140.056 23.8375C140.308 24.0055 140.614 24.0895 140.974 24.0895Z" fill="#EC5863"/>
<path d="M14.2208 4.98869C15.6455 4.48917 17.2113 5.16285 17.7174 6.49273C18.1048 7.51091 17.7581 8.61769 16.9363 9.30529L17.3804 10.5163L18.0869 11.3316C18.2482 11.5182 18.4928 11.6074 18.738 11.5772C19.3991 11.4959 20.056 11.4928 20.6993 11.5604C20.9173 11.5836 21.1342 11.5116 21.2907 11.3595L21.8005 10.8661L22.1764 9.77185C21.8566 9.33293 21.7483 8.75165 21.9379 8.19933C22.2597 7.26306 23.3107 6.77916 24.2454 7.16256C25.0506 7.49245 25.4887 8.38808 25.253 9.22153C25.1032 9.75239 24.7242 10.15 24.2576 10.3468L23.8415 11.5594L23.9364 12.2276C23.969 12.4573 24.1054 12.6579 24.3047 12.7782C24.9746 13.1847 25.5899 13.6817 26.1301 14.2562C26.3116 14.4496 26.5824 14.5325 26.8427 14.4801L28.1825 14.2111L29.6961 13.3717C29.7039 12.6274 30.1017 11.9079 30.8019 11.5195C31.8606 10.9326 33.2014 11.327 33.7655 12.4024C34.2748 13.3725 33.9551 14.592 33.0327 15.1892C32.3124 15.6547 31.4335 15.6377 30.7551 15.2402L29.2325 16.084L28.3823 16.9871C28.1541 17.2294 28.0728 17.572 28.1599 17.8928C28.1604 17.8947 28.1607 17.896 28.1612 17.8979C28.3102 18.4507 28.4006 19.0063 28.438 19.557C28.4597 19.8851 28.6454 20.1803 28.9362 20.3371L30.0459 20.9353L32.2454 21.35C32.6331 21.0124 33.1672 20.8491 33.713 20.9515C34.6915 21.1363 35.3215 22.1048 35.0708 23.0797C34.8551 23.9145 34.0325 24.4703 33.1723 24.3609C32.5857 24.2863 32.1121 23.9338 31.8578 23.4598L29.6441 23.0427L28.2787 23.2089C28.027 23.24 27.8072 23.3975 27.7046 23.628C27.296 24.5379 26.7323 25.3748 26.0364 26.0973C25.8634 26.2768 25.7985 26.5338 25.8613 26.7744L26.2006 28.0843L27.0384 29.3942C27.9599 29.2563 28.9188 29.6536 29.4508 30.4856C30.1659 31.6034 29.8415 33.0834 28.7285 33.8046C27.6161 34.5257 26.1023 34.2119 25.3732 33.1081C24.8627 32.3353 24.8571 31.382 25.2709 30.6257L24.3815 29.2354L23.288 28.3384C23.1261 28.2048 22.9054 28.1695 22.7078 28.2397C22.4885 28.3178 22.2649 28.3876 22.0362 28.4485C20.7935 28.7796 19.5406 28.8223 18.3489 28.6198C18.1742 28.5905 17.9955 28.6402 17.8619 28.7557L17.2751 29.2642L16.8386 30.336C17.1339 30.7923 17.2093 31.3783 16.9894 31.919C16.6156 32.8366 15.5392 33.2616 14.6276 32.8274C13.8425 32.4535 13.4548 31.535 13.7366 30.7157C13.916 30.1939 14.3158 29.8178 14.7928 29.6473L15.2763 28.4594L15.1865 27.4161C14.3146 26.8717 13.5388 26.1731 12.9044 25.3474L11.4132 25.4942L10.0175 26.1823C10.0266 27.1158 9.54482 28.0039 8.69918 28.4338C7.50426 29.0407 6.03648 28.5034 5.42117 27.2331C4.80604 25.9634 5.27521 24.4421 6.47012 23.8352C7.36433 23.3809 8.41073 23.5673 9.13879 24.2224L10.455 23.573L11.3685 22.5962C11.4282 22.5323 11.4503 22.4424 11.4276 22.3584L11.4273 22.3571C11.0051 20.7902 11.0482 19.2063 11.4718 17.7506C11.4945 17.6707 11.4774 17.5846 11.4235 17.521L10.6355 16.5826L8.93758 15.6942C8.46992 15.8994 7.9155 15.8988 7.42793 15.6434C6.54711 15.182 6.22972 14.0748 6.75476 13.2157C7.2157 12.4624 8.19747 12.1764 8.99469 12.5626C9.51073 12.8124 9.84362 13.2797 9.94203 13.7966L11.6399 14.6849L12.8484 14.7983C12.9323 14.8064 13.0141 14.7711 13.0674 14.7061C13.6155 14.0312 14.268 13.4354 15.0092 12.9467C15.2126 12.8119 15.339 12.5886 15.3422 12.3453L15.3547 11.2518L14.881 9.96133C13.8541 9.88759 12.9251 9.26768 12.557 8.30058C12.0509 6.97071 12.7959 5.48757 14.2208 4.98869Z" fill="#EC5863"/>
<path d="M25.9898 18.4765C25.0729 15.0737 21.5559 13.0542 18.1342 13.966C14.7125 14.8778 12.6819 18.3756 13.5988 21.7785C14.5156 25.1813 18.0327 27.2008 21.4543 26.289C24.876 25.3772 26.9066 21.8794 25.9898 18.4765Z" fill="#F58A97"/>
<path d="M20.9484 24.4109C17.8476 25.2372 14.6687 23.6565 13.4173 20.8204C13.4527 21.1391 13.5128 21.4592 13.5988 21.7785C14.5156 25.1814 18.0326 27.2008 21.4543 26.289C24.8761 25.3771 26.9066 21.8795 25.9898 18.4765C25.9037 18.1573 25.7949 17.8502 25.6653 17.5566C26.0073 20.635 24.049 23.5847 20.9484 24.4109Z" fill="#F07281"/>
<path d="M11.324 33.496C11.0629 32.5269 10.0614 31.9518 9.08698 32.2115C8.11258 32.4711 7.53433 33.4672 7.79542 34.4362C8.05651 35.4053 9.05807 35.9804 10.0325 35.7207C11.0069 35.4611 11.5851 34.465 11.324 33.496Z" fill="#EB5569"/>
<path d="M34.1106 27.9379C33.9381 27.2979 33.2766 26.918 32.633 27.0895C31.9894 27.261 31.6074 27.9189 31.7799 28.559C31.9523 29.1991 32.6139 29.5789 33.2575 29.4074C33.9011 29.2359 34.283 28.578 34.1106 27.9379Z" fill="#EB5569"/>
<path d="M30.8429 6.00213C30.5889 5.05936 29.6145 4.49988 28.6665 4.75249C27.7185 5.0051 27.1559 5.97416 27.4099 6.91693C27.6639 7.8597 28.6383 8.41918 29.5863 8.16656C30.5343 7.91395 31.0969 6.9449 30.8429 6.00213Z" fill="#EB5569"/>
<path d="M20.1955 22.0477C19.9587 21.1687 19.0502 20.6471 18.1664 20.8826C17.2826 21.1181 16.7581 22.0216 16.9949 22.9005C17.2318 23.7795 18.1402 24.3011 19.024 24.0656C19.9078 23.8301 20.4323 22.9266 20.1955 22.0477Z" fill="#EB5569"/>
<path d="M24.3108 19.5818C24.1496 18.9835 23.5313 18.6285 22.9297 18.7888C22.3281 18.9491 21.9711 19.564 22.1323 20.1623C22.2935 20.7606 22.9119 21.1156 23.5134 20.9553C24.115 20.795 24.472 20.18 24.3108 19.5818Z" fill="#EB5569"/>
<path d="M19.9578 17.0961C19.8224 16.5937 19.3032 16.2956 18.7981 16.4302C18.2929 16.5648 17.9931 17.0812 18.1285 17.5835C18.2639 18.0859 18.7831 18.384 19.2882 18.2494C19.7934 18.1148 20.0932 17.5984 19.9578 17.0961Z" fill="#EB5569"/>
</svg>
